<svg id="visual" viewBox="0 0 900 600" width="900" height="600" xmlns="http://www.w3.org/2000/svg" xmlns:xlink="http://www.w3.org/1999/xlink" version="1.1"><path d="M0 67L13.7 63C27.3 59 54.7 51 82 52C109.3 53 136.7 63 163.8 69C191 75 218 77 245.2 77C272.3 77 299.7 75 327 79C354.3 83 381.7 93 409 90C436.3 87 463.7 71 491 61C518.3 51 545.7 47 573 46C600.3 45 627.7 47 654.8 48C682 49 709 49 736.2 56C763.3 63 790.7 77 818 78C845.3 79 872.7 67 886.3 61L900 55L900 0L886.3 0C872.7 0 845.3 0 818 0C790.7 0 763.3 0 736.2 0C709 0 682 0 654.8 0C627.7 0 600.3 0 573 0C545.7 0 518.3 0 491 0C463.7 0 436.3 0 409 0C381.7 0 354.3 0 327 0C299.7 0 272.3 0 245.2 0C218 0 191 0 163.8 0C136.7 0 109.3 0 82 0C54.7 0 27.3 0 13.7 0L0 0Z" fill="#a1afc3"></path><path d="M0 145L13.7 142C27.3 139 54.7 133 82 139C109.3 145 136.7 163 163.8 167C191 171 218 161 245.2 160C272.3 159 299.7 167 327 176C354.3 185 381.7 195 409 191C436.3 187 463.7 169 491 156C518.3 143 545.7 135 573 133C600.3 131 627.7 135 654.8 137C682 139 709 139 736.2 143C763.3 147 790.7 155 818 154C845.3 153 872.7 143 886.3 138L900 133L900 53L886.3 59C872.7 65 845.3 77 818 76C790.7 75 763.3 61 736.2 54C709 47 682 47 654.8 46C627.7 45 600.3 43 573 44C545.7 45 518.3 49 491 59C463.7 69 436.3 85 409 88C381.7 91 354.3 81 327 77C299.7 73 272.3 75 245.2 75C218 75 191 73 163.8 67C136.7 61 109.3 51 82 50C54.7 49 27.3 57 13.7 61L0 65Z" fill="#8c9eb6"></path><path d="M0 301L13.7 282C27.3 263 54.7 225 82 230C109.3 235 136.7 283 163.8 301C191 319 218 307 245.2 294C272.3 281 299.7 267 327 262C354.3 257 381.7 261 409 271C436.3 281 463.7 297 491 297C518.3 297 545.7 281 573 270C600.3 259 627.7 253 654.8 251C682 249 709 251 736.2 263C763.3 275 790.7 297 818 303C845.3 309 872.7 299 886.3 294L900 289L900 131L886.3 136C872.7 141 845.3 151 818 152C790.7 153 763.3 145 736.2 141C709 137 682 137 654.8 135C627.7 133 600.3 129 573 131C545.7 133 518.3 141 491 154C463.7 167 436.3 185 409 189C381.7 193 354.3 183 327 174C299.7 165 272.3 157 245.2 158C218 159 191 169 163.8 165C136.7 161 109.3 143 82 137C54.7 131 27.3 137 13.7 140L0 143Z" fill="#778da9"></path><path d="M0 427L13.7 410C27.3 393 54.7 359 82 355C109.3 351 136.7 377 163.8 394C191 411 218 419 245.2 411C272.3 403 299.7 379 327 387C354.3 395 381.7 435 409 456C436.3 477 463.7 479 491 461C518.3 443 545.7 405 573 384C600.3 363 627.7 359 654.8 381C682 403 709 451 736.2 458C763.3 465 790.7 431 818 425C845.3 419 872.7 441 886.3 452L900 463L900 287L886.3 292C872.7 297 845.3 307 818 301C790.7 295 763.3 273 736.2 261C709 249 682 247 654.8 249C627.7 251 600.3 257 573 268C545.7 279 518.3 295 491 295C463.7 295 436.3 279 409 269C381.7 259 354.3 255 327 260C299.7 265 272.3 279 245.2 292C218 305 191 317 163.8 299C136.7 281 109.3 233 82 228C54.7 223 27.3 261 13.7 280L0 299Z" fill="#677a92"></path><path d="M0 601L13.7 601C27.3 601 54.7 601 82 601C109.3 601 136.7 601 163.8 601C191 601 218 601 245.2 601C272.3 601 299.7 601 327 601C354.3 601 381.7 601 409 601C436.3 601 463.7 601 491 601C518.3 601 545.7 601 573 601C600.3 601 627.7 601 654.8 601C682 601 709 601 736.2 601C763.3 601 790.7 601 818 601C845.3 601 872.7 601 886.3 601L900 601L900 461L886.3 450C872.7 439 845.3 417 818 423C790.7 429 763.3 463 736.2 456C709 449 682 401 654.8 379C627.7 357 600.3 361 573 382C545.7 403 518.3 441 491 459C463.7 477 436.3 475 409 454C381.7 433 354.3 393 327 385C299.7 377 272.3 401 245.2 409C218 417 191 409 163.8 392C136.7 375 109.3 349 82 353C54.7 357 27.3 391 13.7 408L0 425Z" fill="#57677c"></path></svg>