<svg id="visual" viewBox="0 0 900 600" width="900" height="600" xmlns="http://www.w3.org/2000/svg" xmlns:xlink="http://www.w3.org/1999/xlink" version="1.1"><path d="M0 139L16.7 144C33.3 149 66.7 159 100 167C133.3 175 166.7 181 200 182C233.3 183 266.7 179 300 170C333.3 161 366.7 147 400 142C433.3 137 466.7 141 500 131C533.3 121 566.7 97 600 92C633.3 87 666.7 101 700 117C733.3 133 766.7 151 800 155C833.3 159 866.7 149 883.3 144L900 139L900 0L883.3 0C866.7 0 833.3 0 800 0C766.7 0 733.3 0 700 0C666.7 0 633.3 0 600 0C566.7 0 533.3 0 500 0C466.7 0 433.3 0 400 0C366.7 0 333.3 0 300 0C266.7 0 233.3 0 200 0C166.7 0 133.3 0 100 0C66.7 0 33.3 0 16.7 0L0 0Z" fill="#394765"></path><path d="M0 193L16.7 200C33.3 207 66.7 221 100 226C133.3 231 166.7 227 200 227C233.3 227 266.7 231 300 227C333.3 223 366.7 211 400 203C433.3 195 466.7 191 500 178C533.3 165 566.7 143 600 141C633.3 139 666.7 157 700 175C733.3 193 766.7 211 800 217C833.3 223 866.7 217 883.3 214L900 211L900 137L883.3 142C866.7 147 833.3 157 800 153C766.7 149 733.3 131 700 115C666.7 99 633.3 85 600 90C566.7 95 533.3 119 500 129C466.7 139 433.3 135 400 140C366.7 145 333.3 159 300 168C266.7 177 233.3 181 200 180C166.7 179 133.3 173 100 165C66.7 157 33.3 147 16.7 142L0 137Z" fill="#2f3c57"></path><path d="M0 241L16.7 247C33.3 253 66.7 265 100 273C133.3 281 166.7 285 200 283C233.3 281 266.7 273 300 266C333.3 259 366.7 253 400 249C433.3 245 466.7 243 500 230C533.3 217 566.7 193 600 194C633.3 195 666.7 221 700 240C733.3 259 766.7 271 800 276C833.3 281 866.7 279 883.3 278L900 277L900 209L883.3 212C866.7 215 833.3 221 800 215C766.7 209 733.3 191 700 173C666.7 155 633.3 137 600 139C566.7 141 533.3 163 500 176C466.7 189 433.3 193 400 201C366.7 209 333.3 221 300 225C266.7 229 233.3 225 200 225C166.7 225 133.3 229 100 224C66.7 219 33.3 205 16.7 198L0 191Z" fill="#253149"></path><path d="M0 367L16.7 361C33.3 355 66.7 343 100 349C133.3 355 166.7 379 200 380C233.3 381 266.7 359 300 349C333.3 339 366.7 341 400 343C433.3 345 466.7 347 500 338C533.3 329 566.7 309 600 303C633.3 297 666.7 305 700 322C733.3 339 766.7 365 800 376C833.3 387 866.7 383 883.3 381L900 379L900 275L883.3 276C866.7 277 833.3 279 800 274C766.7 269 733.3 257 700 238C666.7 219 633.3 193 600 192C566.7 191 533.3 215 500 228C466.7 241 433.3 243 400 247C366.7 251 333.3 257 300 264C266.7 271 233.3 279 200 281C166.7 283 133.3 279 100 271C66.7 263 33.3 251 16.7 245L0 239Z" fill="#1b263b"></path><path d="M0 451L16.7 446C33.3 441 66.7 431 100 435C133.3 439 166.7 457 200 451C233.3 445 266.7 415 300 408C333.3 401 366.7 417 400 420C433.3 423 466.7 413 500 405C533.3 397 566.7 391 600 391C633.3 391 666.7 397 700 407C733.3 417 766.7 431 800 440C833.3 449 866.7 453 883.3 455L900 457L900 377L883.3 379C866.7 381 833.3 385 800 374C766.7 363 733.3 337 700 320C666.7 303 633.3 295 600 301C566.7 307 533.3 327 500 336C466.7 345 433.3 343 400 341C366.7 339 333.3 337 300 347C266.7 357 233.3 379 200 378C166.7 377 133.3 353 100 347C66.7 341 33.3 353 16.7 359L0 365Z" fill="#192336"></path><path d="M0 481L16.7 479C33.3 477 66.7 473 100 477C133.3 481 166.7 493 200 487C233.3 481 266.7 457 300 452C333.3 447 366.7 461 400 464C433.3 467 466.7 459 500 451C533.3 443 566.7 435 600 434C633.3 433 666.7 439 700 452C733.3 465 766.7 485 800 492C833.3 499 866.7 493 883.3 490L900 487L900 455L883.3 453C866.7 451 833.3 447 800 438C766.7 429 733.3 415 700 405C666.7 395 633.3 389 600 389C566.7 389 533.3 395 500 403C466.7 411 433.3 421 400 418C366.7 415 333.3 399 300 406C266.7 413 233.3 443 200 449C166.7 455 133.3 437 100 433C66.7 429 33.3 439 16.7 444L0 449Z" fill="#182031"></path><path d="M0 601L16.7 601C33.3 601 66.7 601 100 601C133.3 601 166.7 601 200 601C233.3 601 266.7 601 300 601C333.3 601 366.7 601 400 601C433.3 601 466.7 601 500 601C533.3 601 566.7 601 600 601C633.3 601 666.7 601 700 601C733.3 601 766.7 601 800 601C833.3 601 866.7 601 883.3 601L900 601L900 485L883.3 488C866.7 491 833.3 497 800 490C766.7 483 733.3 463 700 450C666.7 437 633.3 431 600 432C566.7 433 533.3 441 500 449C466.7 457 433.3 465 400 462C366.7 459 333.3 445 300 450C266.7 455 233.3 479 200 485C166.7 491 133.3 479 100 475C66.7 471 33.3 475 16.7 477L0 479Z" fill="#161d2c"></path></svg>